<?xml version="1.0" encoding="UTF-8" standalone="no"?>
<!-- Created with Inkscape (http://www.inkscape.org/) -->

<svg
   xmlns:dc="http://purl.org/dc/elements/1.1/"
   xmlns:cc="http://creativecommons.org/ns#"
   xmlns:rdf="http://www.w3.org/1999/02/22-rdf-syntax-ns#"
   xmlns:svg="http://www.w3.org/2000/svg"
   xmlns="http://www.w3.org/2000/svg"
   xmlns:sodipodi="http://sodipodi.sourceforge.net/DTD/sodipodi-0.dtd"
   xmlns:inkscape="http://www.inkscape.org/namespaces/inkscape"
   width="400"
   height="380"
   viewBox="0 0 105.83333 100.54172"
   version="1.1"
   id="svg8"
   sodipodi:docname="logo.svg"
   inkscape:version="0.92.5 (2060ec1f9f, 2020-04-08)"
   inkscape:export-filename="/media/samurai/a57fa257-23c7-4f26-b256-eae164cd41bb/projects/tinyfin/tinyfin-rl/resources/logo/logo.png"
   inkscape:export-xdpi="90"
   inkscape:export-ydpi="90">
  <defs
     id="defs2" />
  <sodipodi:namedview
     id="base"
     pagecolor="#ffffff"
     bordercolor="#666666"
     borderopacity="1.0"
     inkscape:pageopacity="0.0"
     inkscape:pageshadow="2"
     inkscape:zoom="1"
     inkscape:cx="274.59088"
     inkscape:cy="138.02154"
     inkscape:document-units="mm"
     inkscape:current-layer="layer1"
     showgrid="false"
     showguides="true"
     inkscape:guide-bbox="true"
     inkscape:snap-bbox="true"
     inkscape:snap-bbox-midpoints="true"
     inkscape:snap-bbox-edge-midpoints="true"
     inkscape:bbox-nodes="true"
     inkscape:bbox-paths="true"
     inkscape:snap-global="false"
     inkscape:window-width="1920"
     inkscape:window-height="1024"
     inkscape:window-x="0"
     inkscape:window-y="0"
     inkscape:window-maximized="1"
     fit-margin-top="0"
     fit-margin-left="0"
     fit-margin-right="0"
     fit-margin-bottom="0"
     units="px" />
  <metadata
     id="metadata5">
    <rdf:RDF>
      <cc:Work
         rdf:about="">
        <dc:format>image/svg+xml</dc:format>
        <dc:type
           rdf:resource="http://purl.org/dc/dcmitype/StillImage" />
        <dc:title></dc:title>
      </cc:Work>
    </rdf:RDF>
  </metadata>
  <g
     inkscape:label="Layer 1"
     inkscape:groupmode="layer"
     id="layer1"
     transform="translate(-43.616075,-101.45469)">
    <path
       inkscape:connector-curvature="0"
       id="path1143"
       d="m 110.04783,172.62167 c -0.35152,-0.12445 -0.606,-0.40601 -0.606,-0.67073 0,-0.3082 0.2696,-0.5365 0.83715,-0.70887 0.58068,-0.17644 0.88386,-0.401 1.10882,-0.82162 0.22808,-0.42627 0.22054,-1.43183 -0.0144,-1.91528 -0.47181,-0.97103 -1.49222,-1.54295 -3.14363,-1.76177 -0.29402,-0.0393 -0.99991,-0.10476 -1.56849,-0.14629 -3.03349,-0.22121 -4.99856,-0.70476 -7.045006,-1.73361 -2.651321,-1.33297 -4.461567,-3.12976 -5.615438,-5.57404 -0.57039,-1.20835 -0.979237,-2.70802 -1.21476,-4.45602 -0.135951,-1.00894 -0.172286,-3.77915 -0.07876,-5.98894 0.04906,-1.1578 0.04333,-1.303 -0.0473,-1.18894 -0.130986,0.16488 -1.577387,4.51126 -2.281878,6.85701 -0.731438,2.43561 -1.013903,3.12502 -1.737803,4.24215 -0.804784,1.2418 -2.148725,2.37644 -3.378651,2.85245 -1.013451,0.3922 -1.794088,0.51849 -2.948274,0.47692 -1.839089,-0.0661 -2.985919,-0.45412 -6.487928,-2.19481 -2.792779,-1.38813 -3.386776,-1.60131 -4.312527,-1.54769 -1.185917,0.0685 -2.046175,0.83737 -2.196389,1.96258 -0.109366,0.81946 0.05827,1.32814 0.65633,1.99079 0.595306,0.65995 0.66247,0.87353 0.378154,1.20393 -0.118528,0.13789 -0.252674,0.19946 -0.494155,0.22668 -0.454299,0.0513 -0.871677,-0.16186 -1.36863,-0.69867 -1.505123,-1.62568 -1.649606,-3.97644 -0.363304,-5.91126 0.458,-0.68897 1.082645,-1.23137 1.854209,-1.61003 0.860303,-0.4222 1.336629,-0.53956 2.352833,-0.58 1.357527,-0.0542 2.512481,0.23534 5.523495,1.3833 3.015122,1.14958 4.293028,1.31903 5.545838,0.73555 0.815347,-0.37978 1.634169,-1.33226 2.084812,-2.42501 0.410698,-0.99607 2.621305,-7.95414 2.549854,-8.02569 -0.02031,-0.0203 -0.438908,0.35974 -0.929226,0.84559 -2.238908,2.21788 -4.168451,3.3606 -6.540151,3.87326 -0.851591,0.18407 -2.854751,0.18687 -3.707426,0.008 -1.853216,-0.39526 -3.682962,-1.29334 -5.309863,-2.60641 -0.273528,-0.2208 -1.139834,-1.02744 -1.925029,-1.79259 -2.096954,-2.04361 -2.590658,-2.4237 -3.520471,-2.71095 -1.122681,-0.34692 -2.432183,0.008 -3.331889,0.89271 -0.535591,0.52918 -0.752698,1.03634 -0.763259,1.78348 -0.01715,1.24053 0.563259,2.0487 1.840397,2.56064 0.654841,0.26256 0.885218,0.50043 0.77847,0.80411 -0.316046,0.89858 -2.788761,0.5137 -3.946604,-0.61404 -0.994674,-0.96881 -1.535771,-2.56759 -1.355586,-4.00487 0.300925,-2.39978 2.462018,-4.60127 5.075424,-5.17026 0.67768,-0.14755 2.065539,-0.1476 2.742587,-1.8e-4 1.64613,0.35838 2.853037,1.02451 5.032184,2.77725 2.612729,2.10156 3.704763,2.75924 5.312888,3.19987 0.797247,0.21846 2.591244,0.21941 3.375943,0 1.403025,-0.38917 2.364523,-0.96295 3.487972,-2.08156 0.734597,-0.73158 1.347597,-1.48148 1.347597,-1.64862 0,-0.0929 -0.06297,-0.084 -1.104988,0.15636 -0.619319,0.14276 -0.900429,0.16416 -2.138931,0.16294 -1.274159,0 -1.522772,-0.0217 -2.33541,-0.19395 -4.426135,-0.93758 -8.000544,-3.63016 -9.813589,-7.39274 -0.808079,-1.67691 -1.168314,-3.14863 -1.169352,-4.77689 0,-1.14462 0.08662,-1.70616 0.421033,-2.70928 0.752517,-2.2566 2.283865,-3.89059 4.395759,-4.69 0.367276,-0.13902 1.195532,-0.35545 1.871,-0.48887 2.002302,-0.39567 2.593817,-0.68617 2.983661,-1.4655 0.488965,-0.97783 0.08973,-2.37698 -0.809163,-2.83588 -0.638501,-0.32589 -1.206635,-0.22099 -1.88928,0.34886 -0.559061,0.46653 -0.999278,0.73559 -1.154819,0.70566 -0.191379,-0.037 -0.317084,-0.34096 -0.27118,-0.65588 0.07321,-0.50051 0.402302,-1.05276 0.962446,-1.61399 0.625503,-0.62676 1.213677,-0.948 2.050328,-1.11952 1.824374,-0.37427 3.642339,0.88224 4.386957,3.03191 0.273212,0.78872 0.344437,2.01521 0.166418,2.86572 -0.168539,0.80519 -0.719476,1.86094 -1.296186,2.48387 -0.948635,1.02464 -2.012187,1.53459 -3.83286,1.83778 -1.501648,0.25001 -2.050734,0.49835 -2.678132,1.21106 -0.602032,0.68386 -0.86423,1.50381 -0.863598,2.69912 0,0.98704 0.174588,1.75021 0.606906,2.66274 0.399775,0.84387 0.795216,1.39675 1.505936,2.10516 1.633898,1.62889 3.998286,2.62483 6.490275,2.73388 1.916723,0.0839 3.017423,-0.27122 3.231686,-1.04247 0.116949,-0.42113 0.08377,-0.77175 -0.21169,-2.23887 -0.492801,-2.44694 -0.534236,-2.84441 -0.535545,-5.14439 0,-2.21661 0.06215,-2.85078 0.430918,-4.32363 0.663418,-2.64757 1.962899,-4.80745 3.845364,-6.39179 3.822885,-3.21697 9.425098,-3.85737 13.898176,-1.58862 1.13753,0.57702 1.88143,1.12137 2.8246,2.06707 3.22483,3.23345 4.00858,7.70987 2.25408,12.87489 -0.30485,0.89745 -0.68689,1.81769 -1.6826,4.05285 -0.99508,2.23381 -1.10553,2.58466 -1.05566,3.35261 0.0468,0.71776 0.23544,1.23146 0.69014,1.8789 0.89366,1.27244 2.59319,2.29488 4.54503,2.73428 0.93762,0.21115 2.55608,0.2288 3.44437,0.0375 1.65628,-0.35644 2.94841,-1.0663 4.07921,-2.2408 0.949,-0.98574 1.55762,-2.09262 1.93817,-3.52449 0.31031,-1.16795 0.36384,-1.64807 0.35964,-3.22518 -0.008,-1.60357 -0.1229,-2.54823 -0.50553,-4.02826 -0.80541,-3.11524 -1.92353,-4.69863 -3.32187,-4.704 -0.5178,0 -0.98442,0.17418 -1.69266,0.63918 -0.65638,0.43092 -0.96006,0.50571 -1.21508,0.29908 -0.14204,-0.11506 -0.17535,-0.20434 -0.17007,-0.45679 0.0104,-0.50927 0.39111,-1.13085 1.16953,-1.91013 0.55089,-0.5517 0.79097,-0.73505 1.28364,-0.98018 0.77116,-0.38385 1.30029,-0.51587 2.06762,-0.51587 0.75716,0 1.28914,0.1309 2.0542,0.50548 1.97383,0.96624 3.95036,4.56069 4.68161,8.51352 0.47218,2.55243 0.38822,5.00628 -0.25439,7.44153 -0.98957,3.74959 -3.39589,6.69872 -6.78289,8.31262 -2.73866,1.30521 -5.92453,1.6005 -8.91176,0.82618 -1.79666,-0.46567 -3.58908,-1.39418 -5.24898,-2.71921 -0.29059,-0.232 -0.55639,-0.42184 -0.59056,-0.42184 -0.0979,0 -0.0724,0.87289 0.0496,1.70201 0.34981,2.3763 1.48788,4.04062 3.4177,4.99774 1.46247,0.72544 3.1503,0.99075 4.99074,0.78465 0.35293,-0.0393 1.47583,-0.23168 2.49538,-0.42708 2.45019,-0.46951 3.17517,-0.56642 4.2506,-0.56804 2.03132,0 3.52137,0.53974 4.69542,1.70982 0.82085,0.81832 1.24897,1.67091 1.43281,2.85357 0.14629,0.9406 0.008,1.81869 -0.44911,2.77337 -0.22473,0.4734 -0.40103,0.7165 -0.83277,1.14814 -1.1721,1.17211 -2.89605,1.66297 -3.26215,0.92873 -0.15455,-0.31 0.0235,-0.56104 0.7652,-1.07957 1.0928,-0.76367 1.46008,-1.40538 1.4042,-2.45336 -0.0379,-0.71216 -0.25069,-1.16145 -0.77188,-1.63015 -0.56037,-0.50372 -1.0998,-0.64549 -2.26685,-0.59539 -1.05046,0.0451 -1.47592,0.14999 -3.82483,0.94312 -2.73301,0.92278 -4.32656,1.21923 -6.20271,1.15374 -3.44816,-0.12051 -6.39083,-1.62455 -8.39625,-4.2919 -0.991294,-1.31857 -1.811019,-3.31049 -2.25268,-5.47411 -0.110269,-0.54061 -0.227849,-0.98971 -0.261115,-0.99824 -0.149718,-0.0388 -0.362537,1.49352 -0.469511,3.37982 -0.194177,3.42207 0.334688,6.08648 1.592463,8.02343 1.527603,2.35233 4.106123,3.75053 7.933383,4.30183 1.4687,0.21151 2.68355,0.46355 3.39463,0.70431 1.95699,0.66256 3.13081,1.72683 3.66622,3.32412 0.67551,2.01522 -0.12927,4.33848 -1.8121,5.23124 -0.79467,0.42162 -1.47168,0.53103 -2.0404,0.32986 z m -15.043513,-33.183 c 1.504492,-0.44017 2.780367,-1.4686 3.601536,-2.90304 0.300519,-0.52512 0.726382,-1.63318 0.814263,-2.11962 0.04961,-0.27262 0.0473,-0.27569 -0.151027,-0.24008 -0.110449,0.0194 -0.457504,0.10503 -0.771248,0.18944 -0.67118,0.18059 -2.743715,0.53144 -3.853578,0.65227 -0.963034,0.10494 -3.337306,0.0456 -4.345521,-0.10869 -0.392057,-0.0598 -0.853939,-0.13031 -1.026406,-0.15622 l -0.313473,-0.0473 0.05019,0.45674 c 0.07001,0.63358 0.489641,1.8561 0.842022,2.45299 0.356489,0.60388 1.027534,1.28512 1.530445,1.55355 0.675288,0.36051 1.303273,0.48459 2.267886,0.44812 0.567683,-0.0212 1.023426,-0.0813 1.354638,-0.17834 z m 3.457866,-7.24829 c 0,-0.0235 -0.11063,-0.17148 -0.245859,-0.32946 -0.516633,-0.60356 -0.744708,-1.93762 -0.5109,-2.98853 0.30097,-1.35284 1.133288,-2.34358 1.968856,-2.34358 0.57585,0 1.14033,0.4547 1.47678,1.18957 0.0947,0.20691 0.20216,0.39472 0.23886,0.41738 0.19246,0.11902 -0.0298,-1.21305 -0.29799,-1.79016 -0.22614,-0.48554 -0.88883,-1.13325 -1.396661,-1.36498 -0.338886,-0.15472 -0.522321,-0.18957 -1.020448,-0.19368 -0.544211,-0.008 -0.655337,0.0194 -1.069465,0.22244 -0.883909,0.43498 -1.684315,1.451 -1.960461,2.48851 -0.149582,0.56186 -0.153148,1.7791 -0.0081,2.40027 0.316678,1.34611 1.336041,2.33433 2.407989,2.33433 0.229068,0 0.416385,-0.0194 0.416385,-0.0415 z m -8.977118,-0.46031 c 0.131844,-0.0709 0.12575,-0.0876 -0.110404,-0.31027 -0.137486,-0.12967 -0.350395,-0.45037 -0.472986,-0.71261 -0.522726,-1.11686 -0.288287,-2.57477 0.570571,-3.54855 0.666622,-0.75581 1.241165,-0.78081 1.920335,-0.0834 0.209524,0.21507 0.390747,0.38063 0.402708,0.36786 0.01219,-0.0126 -0.0086,-0.21557 -0.04559,-0.45092 -0.133062,-0.8445 -0.603656,-1.57179 -1.237012,-1.91194 -0.439991,-0.23628 -1.290183,-0.21904 -1.837193,0.037 -1.172512,0.54926 -1.935455,2.00708 -1.932702,3.69284 0,1.39933 0.480208,2.35753 1.417107,2.84103 0.316182,0.16317 1.082465,0.20871 1.325254,0.0788 z"
       style="fill:#3771c8;fill-opacity:1;stroke:#3771c8;stroke-width:0;stroke-miterlimit:4;stroke-dasharray:none;stroke-opacity:1" />
    <path
       style="opacity:1;fill:#3771c8;fill-opacity:1;fill-rule:nonzero;stroke:#0000ff;stroke-width:0;stroke-linecap:round;stroke-linejoin:bevel;stroke-miterlimit:4;stroke-dasharray:none;stroke-dashoffset:0;stroke-opacity:1;paint-order:markers stroke fill"
       d="m 109.17819,176.73591 c -0.28635,0.005 -0.50061,0.0217 -0.57382,0.0492 -0.048,0.018 -0.10914,0.0745 -0.18705,0.17517 -0.0779,0.1007 -0.17256,0.24563 -0.28784,0.44157 -0.23055,0.39179 -0.54348,0.98682 -0.96845,1.83589 l -1.17698,2.35184 -1.03259,-2.01946 c -0.56786,-1.11076 -1.14023,-2.19436 -1.2719,-2.40785 l -0.23931,-0.38813 h -1.41093 c -0.36005,0 -0.64617,0.005 -0.8728,0.0181 -0.22668,0.0131 -0.39377,0.0352 -0.51596,0.0697 -0.12218,0.0348 -0.19946,0.0822 -0.24608,0.14651 -0.0466,0.0644 -0.0627,0.1457 -0.0627,0.24794 0,0.0537 0.10882,0.29614 0.28409,0.64355 0.17526,0.34737 0.41683,0.79969 0.68273,1.27303 0.5318,0.94679 1.4116,2.53022 1.95509,3.51881 l 0.98827,1.79742 0.0518,2.46148 c 0.019,0.89894 0.0424,1.52715 0.0756,1.94791 0.0167,0.21034 0.0357,0.36868 0.0576,0.48328 0.0221,0.11456 0.0473,0.18533 0.076,0.21995 0.0312,0.0375 0.0718,0.0683 0.13036,0.0931 0.0585,0.0248 0.13491,0.0438 0.23656,0.0581 0.2032,0.0284 0.50815,0.0384 0.97775,0.0384 0.32656,0 0.64956,-0.0135 0.90665,-0.0361 0.2571,-0.0226 0.44844,-0.0535 0.51199,-0.0875 0.0542,-0.0289 0.0956,-0.0604 0.12733,-0.12665 0.0316,-0.0663 0.0539,-0.16723 0.0693,-0.33496 0.0307,-0.33541 0.0343,-0.93789 0.0343,-2.0645 V 184.739 l 0.40167,-0.72796 c 0.2208,-0.40041 1.13816,-2.05773 2.03859,-3.68278 0.52494,-0.94737 0.93062,-1.71022 1.20217,-2.25787 0.13577,-0.27379 0.23814,-0.49374 0.30485,-0.6561 0.0667,-0.1624 0.0978,-0.26721 0.0917,-0.31045 -0.009,-0.0641 -0.0199,-0.11311 -0.0511,-0.15188 -0.0311,-0.0388 -0.0822,-0.0672 -0.17098,-0.0898 -0.17757,-0.0453 -0.50643,-0.0674 -1.12986,-0.10287 -0.36123,-0.0208 -0.71966,-0.028 -1.006,-0.0235 z"
       id="path1108-8"
       inkscape:connector-curvature="0" />
    <path
       style="opacity:1;fill:#3771c8;fill-opacity:1;fill-rule:nonzero;stroke:#0000ff;stroke-width:0;stroke-linecap:round;stroke-linejoin:bevel;stroke-miterlimit:4;stroke-dasharray:none;stroke-dashoffset:0;stroke-opacity:1;paint-order:markers stroke fill"
       d="m 97.409734,176.68143 c -0.787858,-0.009 -1.863643,0.005 -3.330581,0.0149 -1.42469,0.01 -2.463778,0.009 -3.220944,0.0262 -0.37856,0.009 -0.686798,0.0217 -0.937441,0.0424 -0.250598,0.0212 -0.443602,0.0501 -0.592191,0.0908 -0.14859,0.0406 -0.25263,0.0929 -0.325164,0.16023 -0.07253,0.0674 -0.113564,0.14963 -0.135997,0.25074 -0.02257,0.1011 -0.02618,0.22094 -0.02437,0.36294 0,0.142 0.009,0.30616 0.009,0.4961 0,0.3457 0.0045,0.60677 0.03927,0.80379 0.01851,0.0985 0.04559,0.18091 0.08513,0.25005 0.03972,0.0691 0.09149,0.12485 0.160009,0.16981 0.06847,0.0451 0.153284,0.079 0.258678,0.10494 0.105349,0.0257 0.231189,0.0438 0.381359,0.0557 0.300293,0.0244 0.698127,0.0257 1.225006,0.0257 h 1.671948 v 4.93767 c 0,2.27583 0.0045,3.51397 0.03205,4.20456 0.01399,0.34529 0.0343,0.55355 0.06297,0.68644 0.02844,0.13288 0.06567,0.1902 0.113835,0.23326 0.05746,0.0514 0.143353,0.10504 0.235342,0.14999 0.09199,0.0451 0.190115,0.0811 0.272218,0.0979 0.131077,0.0271 0.322591,0.0406 0.539021,0.0433 0.216429,0.005 0.45782,-0.005 0.688783,-0.0217 0.230964,-0.0163 0.451366,-0.0406 0.626044,-0.0711 0.174679,-0.0302 0.303724,-0.0664 0.351298,-0.10589 0.03972,-0.0329 0.07118,-0.0998 0.09583,-0.24911 0.02483,-0.14936 0.04288,-0.38136 0.05579,-0.74525 0.02573,-0.72778 0.03159,-1.98294 0.03159,-4.15906 v -5.00136 h 1.727421 c 0.509637,0 0.88752,0.005 1.168134,-0.0153 0.140285,-0.009 0.256105,-0.0239 0.352201,-0.0473 0.09605,-0.0235 0.172241,-0.055 0.232769,-0.0985 0.06048,-0.0433 0.105394,-0.0985 0.139021,-0.1684 0.0334,-0.0699 0.05592,-0.15446 0.07136,-0.25701 0.03069,-0.20519 0.03385,-0.48201 0.04423,-0.85534 0.0054,-0.19241 0.01625,-0.35933 0.01941,-0.50381 0.0045,-0.14448 0,-0.26653 -0.02528,-0.36971 -0.02437,-0.10319 -0.06969,-0.18755 -0.147867,-0.25611 -0.07818,-0.0686 -0.189664,-0.12132 -0.347326,-0.16186 -0.157616,-0.0406 -0.361273,-0.0687 -0.624148,-0.088 -0.262875,-0.0194 -0.584789,-0.0293 -0.978741,-0.0339 z"
       id="path1096-9"
       inkscape:connector-curvature="0" />
    <path
       style="opacity:1;fill:#3771c8;fill-opacity:1;fill-rule:nonzero;stroke:#0000ff;stroke-width:0;stroke-linecap:round;stroke-linejoin:bevel;stroke-miterlimit:4;stroke-dasharray:none;stroke-dashoffset:0;stroke-opacity:1;paint-order:markers stroke fill"
       d="m 78.495218,176.78511 c -0.161499,0 -0.297992,0.005 -0.41309,0.0266 -0.115143,0.0221 -0.208982,0.062 -0.285534,0.13062 -0.07651,0.0686 -0.135725,0.16628 -0.181449,0.30485 -0.04572,0.13857 -0.07786,0.31799 -0.100519,0.55004 -0.02257,0.232 -0.03566,0.51663 -0.04333,0.86558 -0.01444,0.6979 -0.0063,1.65317 -0.0063,2.95992 0,1.38411 0.01219,2.53013 0.03521,3.38028 0.02302,0.85014 0.05642,1.40447 0.09912,1.60568 0.04518,0.21291 0.10219,0.41829 0.170526,0.61553 0.06834,0.19729 0.147868,0.38655 0.238366,0.56705 0.09045,0.1805 0.191876,0.35216 0.303453,0.51478 0.111578,0.16259 0.233356,0.31614 0.36502,0.45972 0.131708,0.14358 0.273347,0.27727 0.424058,0.40072 0.150711,0.12345 0.310584,0.23674 0.47935,0.33893 0.16872,0.10219 0.346287,0.19332 0.532024,0.27312 0.185737,0.0798 0.379599,0.14828 0.581269,0.20456 0.248612,0.0694 0.58673,0.11582 0.967953,0.14087 0.381269,0.0253 0.805597,0.0289 1.227127,0.0131 0.421576,-0.0158 0.840217,-0.0513 1.20966,-0.10449 0.369443,-0.0532 0.689596,-0.12417 0.914557,-0.21133 0.179056,-0.0693 0.351975,-0.1517 0.517851,-0.24608 0.165832,-0.0943 0.324622,-0.20077 0.475785,-0.31812 0.151207,-0.1174 0.294606,-0.24573 0.429655,-0.38416 0.135048,-0.13848 0.261837,-0.28707 0.379282,-0.4446 0.117445,-0.15752 0.225593,-0.32403 0.32399,-0.49871 0.0984,-0.17463 0.186866,-0.35735 0.264726,-0.54719 0.07786,-0.1898 0.145204,-0.38664 0.201083,-0.58962 0.05583,-0.20302 0.100339,-0.41209 0.132702,-0.62631 0.03791,-0.25155 0.06603,-0.86906 0.0821,-1.73185 0.01625,-0.86283 0.02031,-1.97093 0.0099,-3.20415 -0.01038,-1.20858 -0.009,-2.09027 -0.02753,-2.73302 -0.0095,-0.32133 -0.02392,-0.58298 -0.04735,-0.79585 -0.02347,-0.21282 -0.0557,-0.37675 -0.101016,-0.50309 -0.04527,-0.12634 -0.103633,-0.21507 -0.17865,-0.27687 -0.07506,-0.0618 -0.167006,-0.0967 -0.279666,-0.11595 -0.225367,-0.0384 -0.53365,-0.0135 -0.956805,-0.0135 -0.446581,0 -0.728639,0.009 -0.918529,0.0406 -0.09492,0.0153 -0.16696,0.0366 -0.22487,0.0646 -0.05791,0.028 -0.101648,0.0624 -0.140646,0.10544 -0.04152,0.046 -0.07456,0.1183 -0.101196,0.2617 -0.02663,0.1434 -0.04694,0.35784 -0.06301,0.68856 -0.03205,0.66143 -0.04748,1.78732 -0.06342,3.73713 -0.01806,2.20731 -0.02799,3.328 -0.06721,3.95053 -0.01941,0.31126 -0.04609,0.49799 -0.08468,0.63376 -0.03837,0.13577 -0.08896,0.22072 -0.155811,0.32819 -0.08192,0.13175 -0.184022,0.2487 -0.304627,0.35008 -0.120559,0.10142 -0.25958,0.18727 -0.41494,0.2566 -0.155315,0.0693 -0.326879,0.12214 -0.513112,0.15766 -0.186279,0.0357 -0.387136,0.0537 -0.600407,0.0537 -0.195667,0 -0.377567,-0.0172 -0.545791,-0.0513 -0.168269,-0.0343 -0.322862,-0.0854 -0.463507,-0.15374 -0.1406,-0.0683 -0.267389,-0.15378 -0.380185,-0.2561 -0.112751,-0.10228 -0.21151,-0.2214 -0.296231,-0.35758 -0.06667,-0.10724 -0.116859,-0.19196 -0.155315,-0.32769 -0.03837,-0.13577 -0.06527,-0.32254 -0.08468,-0.63376 -0.03882,-0.62239 -0.04857,-1.74277 -0.06599,-3.94891 -0.01535,-1.95599 -0.03024,-3.08142 -0.06229,-3.74109 -0.0158,-0.32982 -0.03656,-0.543 -0.06324,-0.68549 -0.02663,-0.14254 -0.05994,-0.2144 -0.101918,-0.2608 -0.03927,-0.0438 -0.08373,-0.0787 -0.142045,-0.10684 -0.05836,-0.028 -0.130896,-0.049 -0.227172,-0.0646 -0.192553,-0.0311 -0.479937,-0.0406 -0.93884,-0.0406 -0.215572,0 -0.402077,-0.006 -0.56353,-0.007 z"
       id="path1088"
       inkscape:connector-curvature="0" />
    <path
       style="opacity:1;fill:#3771c8;fill-opacity:1;fill-rule:nonzero;stroke:#0000ff;stroke-width:0;stroke-linecap:round;stroke-linejoin:bevel;stroke-miterlimit:4;stroke-dasharray:none;stroke-dashoffset:0;stroke-opacity:1;paint-order:markers stroke fill"
       d="m 137.90417,176.65403 c -0.39783,0.006 -0.79422,0.0343 -1.15554,0.0825 -0.36127,0.0484 -0.68725,0.11736 -0.94394,0.20646 -0.23661,0.0822 -0.45719,0.17183 -0.66193,0.26964 -0.20478,0.0978 -0.39395,0.20362 -0.56755,0.3179 -0.17355,0.11429 -0.33161,0.23715 -0.47465,0.36877 -0.14304,0.13166 -0.271,0.27208 -0.38416,0.42193 -0.11311,0.14986 -0.21142,0.30901 -0.29528,0.47795 -0.0839,0.16891 -0.15347,0.3476 -0.20876,0.53645 -0.0553,0.18885 -0.0963,0.388 -0.12363,0.59761 -0.0275,0.20961 -0.0406,0.42975 -0.0406,0.66102 0,0.26247 0.0212,0.51208 0.0639,0.74896 0.0429,0.23692 0.10716,0.46125 0.19386,0.67366 0.0866,0.21237 0.19554,0.41264 0.32724,0.60153 0.13167,0.1889 0.28608,0.36647 0.46392,0.53298 0.17784,0.1665 0.37919,0.32205 0.60433,0.4672 0.22514,0.14516 0.47425,0.27981 0.74782,0.4047 0.27358,0.12485 0.57161,0.23999 0.89475,0.34565 0.32313,0.10567 0.67113,0.20199 1.04495,0.28946 0.46893,0.10978 0.8576,0.2154 1.17676,0.32377 0.31911,0.10833 0.56885,0.21941 0.75992,0.34006 0.0955,0.0603 0.17639,0.12318 0.24396,0.18917 0.0676,0.066 0.12187,0.13518 0.16421,0.20853 0.0424,0.0733 0.0728,0.15062 0.0926,0.23304 0.0199,0.0824 0.0289,0.16989 0.0289,0.2631 0,0.10679 -0.0126,0.20735 -0.0375,0.30155 -0.0248,0.0942 -0.0614,0.18195 -0.10964,0.26288 -0.0482,0.081 -0.10796,0.15522 -0.17865,0.2223 -0.0707,0.0671 -0.15242,0.12706 -0.24446,0.1796 -0.092,0.0526 -0.19449,0.0977 -0.3067,0.13504 -0.11225,0.0375 -0.23421,0.0673 -0.36552,0.0889 -0.2626,0.0433 -0.56208,0.0542 -0.89429,0.0302 -0.25168,-0.0181 -0.48661,-0.0542 -0.70137,-0.10706 -0.21476,-0.0528 -0.40953,-0.12228 -0.58105,-0.20664 -0.17147,-0.0844 -0.31965,-0.18366 -0.44152,-0.29646 -0.12187,-0.11284 -0.21751,-0.23927 -0.28341,-0.37743 -0.0535,-0.11225 -0.11659,-0.21972 -0.1754,-0.3025 -0.0588,-0.0828 -0.11316,-0.14083 -0.14882,-0.15419 -0.0572,-0.0212 -0.21796,0.006 -0.43151,0.063 -0.21354,0.0572 -0.47975,0.14443 -0.74827,0.24306 -0.26847,0.0986 -0.53929,0.20862 -0.76132,0.31139 -0.22202,0.10278 -0.39535,0.19833 -0.46951,0.26798 -0.0645,0.0606 -0.11776,0.12232 -0.15956,0.18592 -0.042,0.0636 -0.0721,0.129 -0.0907,0.19688 -0.0185,0.0678 -0.0257,0.13803 -0.0208,0.21129 0.005,0.0733 0.0217,0.14967 0.0508,0.22952 0.058,0.15978 0.16439,0.33383 0.32097,0.52715 0.15658,0.19331 0.36317,0.40595 0.62184,0.64238 0.16353,0.14945 0.33812,0.28675 0.52386,0.41214 0.18578,0.12543 0.38289,0.239 0.59178,0.34078 0.20885,0.10183 0.42934,0.1917 0.6622,0.27032 0.23282,0.0786 0.47795,0.14593 0.73564,0.20176 0.13139,0.0284 0.40532,0.05 0.74082,0.0616 0.3355,0.0117 0.73257,0.0135 1.11027,0.005 0.53817,-0.0154 1.02623,-0.0629 1.46784,-0.14394 0.22077,-0.0406 0.42984,-0.0894 0.6279,-0.14692 0.19806,-0.0575 0.38519,-0.12376 0.56145,-0.19874 0.17621,-0.075 0.34164,-0.15865 0.49704,-0.25145 0.15536,-0.0928 0.3007,-0.19454 0.43616,-0.30558 0.1355,-0.11099 0.26116,-0.23119 0.37766,-0.36082 0.11649,-0.12963 0.22365,-0.26865 0.32209,-0.41729 0.129,-0.19471 0.24004,-0.39783 0.33333,-0.60668 0.0933,-0.20884 0.16882,-0.42324 0.22673,-0.64048 0.0579,-0.21725 0.0982,-0.43738 0.12105,-0.65733 0.023,-0.2199 0.0284,-0.43967 0.0167,-0.6566 -0.0117,-0.21688 -0.0411,-0.43092 -0.0875,-0.63909 -0.0464,-0.20817 -0.10991,-0.4106 -0.19034,-0.60433 -0.0804,-0.19377 -0.17775,-0.37874 -0.29204,-0.55234 -0.11424,-0.17364 -0.24549,-0.33577 -0.39327,-0.48354 -0.14886,-0.14886 -0.31817,-0.28576 -0.51781,-0.41472 -0.19964,-0.12895 -0.42956,-0.25006 -0.69948,-0.36759 -0.26996,-0.11754 -0.58,-0.23151 -0.93979,-0.34615 -0.35978,-0.11465 -0.76935,-0.23006 -1.23854,-0.35035 -0.91384,-0.23422 -1.40028,-0.36371 -1.70156,-0.4896 -0.15067,-0.0629 -0.25507,-0.12476 -0.34336,-0.19846 -0.0882,-0.0738 -0.16041,-0.15938 -0.24676,-0.2692 -0.10562,-0.13428 -0.17567,-0.26955 -0.2139,-0.4028 -0.0384,-0.13324 -0.0447,-0.26445 -0.0235,-0.39025 0.0212,-0.12579 0.0697,-0.24608 0.14204,-0.35802 0.0723,-0.11194 0.16818,-0.2153 0.28364,-0.30697 0.11546,-0.0916 0.25047,-0.17157 0.40095,-0.23652 0.15053,-0.0649 0.31659,-0.11492 0.49402,-0.14669 0.17748,-0.0316 0.36651,-0.0455 0.56285,-0.0379 0.19635,0.008 0.4,0.037 0.60713,0.0907 0.16507,0.0429 0.31059,0.0907 0.43968,0.14601 0.12909,0.0553 0.24175,0.11817 0.34078,0.19034 0.099,0.0721 0.18447,0.15369 0.2594,0.24699 0.0749,0.0933 0.13938,0.19842 0.19616,0.31722 0.0402,0.0842 0.10346,0.16385 0.17306,0.22437 0.0696,0.0606 0.14547,0.10197 0.21083,0.10964 0.0654,0.008 0.24563,-0.0361 0.48355,-0.11243 0.23791,-0.0766 0.53342,-0.18615 0.82898,-0.30996 0.52688,-0.22072 0.79553,-0.33509 0.93017,-0.44225 0.0673,-0.0536 0.10124,-0.10543 0.11713,-0.16772 0.0158,-0.0623 0.014,-0.13501 0.009,-0.2307 -0.005,-0.11198 -0.028,-0.22631 -0.0663,-0.34145 -0.0384,-0.11515 -0.0923,-0.23106 -0.16024,-0.34638 -0.068,-0.11533 -0.15003,-0.23011 -0.24446,-0.34263 -0.0944,-0.11253 -0.20108,-0.22289 -0.31862,-0.32959 -0.23502,-0.21341 -0.51315,-0.41196 -0.8208,-0.58407 -0.15383,-0.086 -0.3151,-0.16551 -0.48211,-0.23674 -0.16705,-0.0712 -0.33974,-0.13414 -0.51663,-0.18754 -0.2668,-0.0805 -0.60027,-0.13871 -0.9666,-0.17518 -0.36633,-0.0366 -0.76561,-0.0511 -1.16348,-0.0447 z"
       id="path1086-0"
       inkscape:connector-curvature="0" />
    <path
       style="opacity:1;fill:#3771c8;fill-opacity:1;fill-rule:nonzero;stroke:#0000ff;stroke-width:0;stroke-linecap:round;stroke-linejoin:bevel;stroke-miterlimit:4;stroke-dasharray:none;stroke-dashoffset:0;stroke-opacity:1;paint-order:markers stroke fill"
       d="m 62.305775,176.65457 c -0.274926,-0.005 -0.549041,0.008 -0.774137,0.0343 -0.225096,0.0266 -0.400993,0.0683 -0.479801,0.12594 -0.04893,0.0357 -0.08662,0.0807 -0.114737,0.18266 -0.02799,0.10197 -0.04681,0.26116 -0.05832,0.52548 -0.02302,0.52869 -0.01715,1.47832 0,3.23309 0.02121,2.08269 0.03024,3.78664 0.01986,3.78659 -0.01038,-4e-5 -0.246716,-0.41674 -0.525073,-0.92579 -0.600316,-1.0979 -1.561815,-2.76543 -2.395487,-4.17563 -0.416791,-0.70508 -0.801625,-1.34584 -1.093433,-1.81887 -0.291853,-0.47303 -0.490499,-0.77847 -0.535094,-0.81263 -0.05331,-0.0411 -0.243511,-0.0744 -0.502415,-0.0996 -0.258903,-0.0253 -0.586594,-0.042 -0.914827,-0.0485 -0.328188,-0.007 -0.657098,-0.005 -0.918303,0.0113 -0.26116,0.0144 -0.454616,0.0406 -0.512436,0.0791 -0.04789,0.0321 -0.09032,0.0657 -0.127601,0.11171 -0.03746,0.0461 -0.06946,0.10449 -0.09749,0.1857 -0.05597,0.16235 -0.09479,0.41602 -0.121507,0.84527 -0.02663,0.42929 -0.04153,1.03403 -0.0492,1.89867 -0.0077,0.86463 -0.009,1.98921 -0.0086,3.45768 0,1.5754 0,2.76231 0.01128,3.65945 0.01038,0.89713 0.02979,1.50449 0.06739,1.92038 0.01896,0.2079 0.04243,0.36782 0.07136,0.49235 0.02934,0.12457 0.06405,0.21367 0.105665,0.27944 0.04153,0.0658 0.09014,0.10832 0.146468,0.13997 0.05638,0.0316 0.120559,0.0523 0.193861,0.0744 0.08183,0.0248 0.25597,0.0429 0.470684,0.0523 0.21476,0.009 0.470007,0.01 0.71397,0 0.177251,-0.008 0.331483,-0.0108 0.465358,-0.0199 0.133875,-0.009 0.247438,-0.023 0.343805,-0.0527 0.09637,-0.0293 0.175356,-0.0742 0.239991,-0.14367 0.06468,-0.0695 0.115143,-0.16376 0.153961,-0.29253 0.03882,-0.12878 0.06613,-0.29217 0.0849,-0.49962 0.01896,-0.20744 0.02889,-0.45913 0.0334,-0.76456 0.009,-0.61093 -0.0045,-1.43706 -0.01715,-2.55622 -0.02302,-2.04798 -0.03521,-3.71474 -0.02663,-3.70377 0.0086,0.0108 0.945656,1.65895 2.082465,3.66229 0.56836,1.00167 1.121869,1.94935 1.555767,2.66906 0.433852,0.7197 0.747958,1.21146 0.837825,1.30178 0.07854,0.0789 0.141232,0.13888 0.209433,0.18447 0.0682,0.0456 0.141909,0.0769 0.242609,0.0982 0.201354,0.0424 0.510449,0.0457 1.098579,0.0457 0.485624,0 0.802979,-0.01 1.020492,-0.0397 0.108734,-0.0149 0.192597,-0.0348 0.260077,-0.0607 0.06743,-0.0257 0.118528,-0.0578 0.161859,-0.097 0.05155,-0.0467 0.0909,-0.10386 0.121057,-0.2547 0.03024,-0.15085 0.05091,-0.39527 0.06531,-0.81639 0.02889,-0.84229 0.03205,-2.39133 0.03205,-5.31135 v -6.18484 l -0.265448,-0.18592 c -0.08522,-0.0597 -0.265945,-0.10593 -0.494245,-0.13807 -0.228301,-0.032 -0.50413,-0.0502 -0.779057,-0.0537 z"
       id="path1074"
       inkscape:connector-curvature="0" />
    <path
       style="opacity:1;fill:#3771c8;fill-opacity:1;fill-rule:nonzero;stroke:#0000ff;stroke-width:0;stroke-linecap:round;stroke-linejoin:bevel;stroke-miterlimit:4;stroke-dasharray:none;stroke-dashoffset:0;stroke-opacity:1;paint-order:markers stroke fill"
       d="m 113.81868,176.75762 c -0.30409,-5e-5 -0.60556,0.0162 -0.8474,0.049 -0.12092,0.0163 -0.2269,0.037 -0.3109,0.0616 -0.084,0.0248 -0.14583,0.0535 -0.17869,0.0863 -0.0415,0.0415 -0.074,0.11853 -0.0994,0.29533 -0.0253,0.17675 -0.0433,0.45335 -0.0567,0.89334 -0.0262,0.87998 -0.0316,2.41417 -0.0316,5.11424 0,2.67073 0.006,4.20799 0.032,5.10652 0.0131,0.44925 0.0311,0.73866 0.0562,0.9304 0.0253,0.19179 0.0569,0.28563 0.0975,0.34358 v 2.7e-4 c 0.0464,0.0663 0.0815,0.11592 0.16908,0.15324 0.0876,0.0375 0.22763,0.0622 0.48378,0.0788 0.51234,0.0334 1.48932,0.0334 3.44066,0.0334 1.17942,0 2.04672,0.005 2.684,-0.009 0.31867,-0.007 0.57974,-0.0194 0.79378,-0.0397 0.21399,-0.0203 0.38086,-0.0486 0.51081,-0.0881 0.12994,-0.0397 0.22297,-0.0902 0.28946,-0.15536 0.0665,-0.0651 0.10629,-0.14448 0.1299,-0.24139 0.0235,-0.097 0.0311,-0.21137 0.0325,-0.34638 0,-0.13504 -0.005,-0.29086 -0.005,-0.47023 0,-0.2691 -0.0113,-0.52959 -0.028,-0.73265 -0.0167,-0.20303 -0.0393,-0.34841 -0.0641,-0.38741 -0.05,-0.0787 -0.12674,-0.14295 -0.24888,-0.19477 -0.1221,-0.0519 -0.2896,-0.0913 -0.52083,-0.12105 -0.23128,-0.0298 -0.52639,-0.0498 -0.90386,-0.0623 -0.37743,-0.0126 -0.83715,-0.0176 -1.39784,-0.0176 h -2.31383 l -0.037,-4.95117 c -0.0181,-2.39436 -0.0293,-3.63354 -0.0649,-4.296 -0.0176,-0.33122 -0.0415,-0.51835 -0.0756,-0.6335 -0.0339,-0.11514 -0.0778,-0.15838 -0.13555,-0.20198 -0.0433,-0.0329 -0.11487,-0.0614 -0.20686,-0.0861 -0.092,-0.0248 -0.20451,-0.0454 -0.33076,-0.0618 -0.25249,-0.0329 -0.55938,-0.0492 -0.86351,-0.0492 z"
       id="path1070-3"
       inkscape:connector-curvature="0" />
    <path
       style="opacity:1;fill:#3771c8;fill-opacity:1;fill-rule:nonzero;stroke:#0000ff;stroke-width:0;stroke-linecap:round;stroke-linejoin:bevel;stroke-miterlimit:4;stroke-dasharray:none;stroke-dashoffset:0;stroke-opacity:1;paint-order:markers stroke fill"
       d="m 70.771858,176.74317 c -0.702009,0 -1.097676,0.006 -1.34349,0.0388 -0.122907,0.0162 -0.208395,0.0393 -0.27592,0.0719 -0.06757,0.0325 -0.117309,0.0743 -0.168675,0.12805 -0.05701,0.0597 -0.167411,0.30282 -0.329316,0.72304 -0.16195,0.42027 -0.375311,1.01761 -0.63796,1.78624 -0.525299,1.53726 -1.247845,3.75906 -2.151028,6.61661 -0.527646,1.66942 -0.959332,3.11627 -0.959332,3.21512 0,0.0494 0.02212,0.11885 0.05805,0.19102 0.03566,0.0722 0.08513,0.14705 0.139517,0.20713 0.04153,0.0457 0.08626,0.0822 0.145294,0.11126 0.05904,0.0289 0.132251,0.0506 0.230693,0.0664 0.196841,0.0316 0.494246,0.0406 0.978967,0.0406 0.305936,0 0.548499,-0.005 0.742632,-0.0226 0.194132,-0.0172 0.339833,-0.0455 0.452268,-0.0919 0.112435,-0.0464 0.191514,-0.11068 0.252403,-0.19896 0.06089,-0.0883 0.103499,-0.20095 0.142993,-0.34358 0.03656,-0.13139 0.179734,-0.62975 0.318574,-1.10747 l 0.252629,-0.86865 2.042564,0.0325 2.042565,0.0325 0.334507,1.07484 c 0.110404,0.35473 0.199368,0.62555 0.293162,0.832 0.0469,0.10323 0.09506,0.19043 0.147641,0.26405 0.05263,0.0736 0.109817,0.13365 0.174724,0.18262 0.06491,0.0489 0.137576,0.0867 0.221349,0.11591 0.08377,0.0293 0.178606,0.0501 0.287836,0.0646 0.218461,0.0289 0.494155,0.0334 0.853939,0.0334 0.321462,0 0.581719,-0.007 0.791153,-0.0239 0.209434,-0.0172 0.368269,-0.0447 0.486798,-0.0868 0.118528,-0.042 0.19666,-0.098 0.245407,-0.17215 0.0487,-0.0741 0.06784,-0.16614 0.06784,-0.27989 0,-0.0789 -0.05796,-0.32444 -0.160009,-0.6946 -0.102008,-0.37017 -0.248025,-0.86496 -0.424509,-1.44221 -0.352877,-1.1545 -0.826947,-2.63922 -1.312029,-4.11753 -0.485038,-1.47832 -0.981088,-2.95022 -1.377568,-4.07954 -0.198239,-0.56465 -0.371699,-1.04378 -0.506387,-1.39508 -0.134687,-0.35125 -0.230512,-0.57481 -0.274069,-0.62861 -0.05317,-0.0657 -0.09844,-0.11573 -0.159557,-0.15392 -0.06107,-0.0384 -0.138163,-0.0645 -0.254932,-0.0826 -0.233491,-0.0361 -0.625908,-0.0393 -1.36872,-0.0393 z m -0.03972,3.58272 0.123404,0.47768 c 0.06784,0.26274 0.289731,1.12259 0.493117,1.91081 0.20334,0.78817 0.421259,1.554 0.484224,1.70178 l 0.114286,0.2687 h -1.293613 -1.29384 l 0.214128,-0.68671 c 0.117807,-0.37766 0.426631,-1.35843 0.686211,-2.17946 z"
       id="path1054"
       inkscape:connector-curvature="0" />
    <path
       inkscape:connector-curvature="0"
       id="path1806"
       d="m 122.34673,176.83011 c -0.1615,0 -0.29799,0.005 -0.41309,0.0266 -0.11514,0.0221 -0.20898,0.062 -0.28553,0.13062 -0.0765,0.0687 -0.13573,0.16629 -0.18145,0.30486 -0.0457,0.13856 -0.0779,0.31798 -0.10052,0.55003 -0.0226,0.232 -0.0357,0.51663 -0.0433,0.86558 -0.0145,0.6979 -0.006,1.65317 -0.006,2.95992 0,1.38411 0.0122,2.53013 0.0352,3.38028 0.023,0.85015 0.0564,1.40447 0.0991,1.60569 0.0452,0.21291 0.10219,0.41828 0.17053,0.61552 0.0683,0.1973 0.14787,0.38655 0.23837,0.56705 0.0904,0.1805 0.19187,0.35216 0.30345,0.51479 0.11158,0.16258 0.23336,0.31613 0.36502,0.45971 0.13171,0.14358 0.27335,0.27728 0.42406,0.40072 0.15071,0.12345 0.31058,0.23675 0.47935,0.33893 0.16872,0.10219 0.34628,0.19332 0.53202,0.27313 0.18574,0.0798 0.3796,0.14827 0.58127,0.20455 0.24861,0.0694 0.58673,0.11582 0.96795,0.14088 0.38127,0.0253 0.8056,0.0289 1.22713,0.0131 0.42158,-0.0158 0.84022,-0.0513 1.20966,-0.1045 0.36944,-0.0532 0.6896,-0.12417 0.91456,-0.21133 0.17905,-0.0693 0.35197,-0.1517 0.51785,-0.24608 0.16583,-0.0943 0.32462,-0.20077 0.47578,-0.31812 0.15121,-0.1174 0.29461,-0.24573 0.42966,-0.38416 0.13505,-0.13848 0.26184,-0.28707 0.37928,-0.44459 0.11745,-0.15753 0.22559,-0.32404 0.32399,-0.49872 0.0984,-0.17463 0.18687,-0.35734 0.26473,-0.54719 0.0779,-0.1898 0.1452,-0.38664 0.20108,-0.58962 0.0558,-0.20302 0.10034,-0.41209 0.1327,-0.62631 0.0379,-0.25155 0.066,-0.86906 0.0821,-1.73185 0.0163,-0.86283 0.0203,-1.97093 0.01,-3.20415 -0.0104,-1.20858 -0.009,-2.09027 -0.0275,-2.73302 -0.009,-0.32132 -0.0239,-0.58298 -0.0473,-0.79585 -0.0235,-0.21281 -0.0557,-0.37675 -0.10101,-0.50309 -0.0453,-0.12633 -0.10364,-0.21507 -0.17865,-0.27686 -0.0751,-0.0618 -0.16701,-0.0967 -0.27967,-0.11596 -0.22537,-0.0384 -0.53365,-0.0135 -0.9568,-0.0135 -0.44658,0 -0.72864,0.009 -0.91853,0.0406 -0.0949,0.0154 -0.16696,0.0366 -0.22487,0.0646 -0.0579,0.028 -0.10165,0.0624 -0.14065,0.10544 -0.0415,0.046 -0.0746,0.1183 -0.10119,0.2617 -0.0266,0.1434 -0.0469,0.35784 -0.063,0.68856 -0.032,0.66143 -0.0475,1.78732 -0.0634,3.73713 -0.0181,2.20731 -0.028,3.328 -0.0672,3.95053 -0.0194,0.31126 -0.0461,0.49799 -0.0847,0.63376 -0.0384,0.13577 -0.089,0.22072 -0.15581,0.32819 -0.0819,0.13175 -0.18402,0.2487 -0.30462,0.35008 -0.12056,0.10142 -0.25958,0.18727 -0.41494,0.2566 -0.15532,0.0693 -0.32688,0.12214 -0.51312,0.15766 -0.18628,0.0357 -0.38713,0.0537 -0.6004,0.0537 -0.19567,0 -0.37757,-0.0171 -0.54579,-0.0513 -0.16827,-0.0343 -0.32287,-0.0854 -0.46351,-0.15374 -0.1406,-0.0683 -0.26739,-0.15378 -0.38019,-0.2561 -0.11275,-0.10228 -0.21151,-0.2214 -0.29623,-0.35757 -0.0667,-0.10725 -0.11686,-0.19197 -0.15531,-0.3277 -0.0384,-0.13577 -0.0653,-0.32254 -0.0847,-0.63376 -0.0388,-0.62239 -0.0486,-1.74277 -0.066,-3.9489 -0.0153,-1.956 -0.0302,-3.08143 -0.0623,-3.7411 -0.0158,-0.32982 -0.0366,-0.543 -0.0632,-0.68549 -0.0266,-0.14254 -0.0599,-0.2144 -0.10192,-0.2608 -0.0393,-0.0438 -0.0837,-0.0787 -0.14205,-0.10684 -0.0584,-0.028 -0.13089,-0.049 -0.22717,-0.0646 -0.19255,-0.0311 -0.47994,-0.0406 -0.93884,-0.0406 -0.21557,0 -0.40208,-0.006 -0.56353,-0.007 z"
       style="opacity:1;fill:#3771c8;fill-opacity:1;fill-rule:nonzero;stroke:#0000ff;stroke-width:0;stroke-linecap:round;stroke-linejoin:bevel;stroke-miterlimit:4;stroke-dasharray:none;stroke-dashoffset:0;stroke-opacity:1;paint-order:markers stroke fill" />
  </g>
</svg>
